<svg width="509" height="508" viewBox="0 0 509 508" fill="none" xmlns="http://www.w3.org/2000/svg">
<rect width="509" height="508" fill="white"/>
<path d="M140.5 316.5L66 248L76.5 237L139 294.5L243 169.5L360.5 286L433 221L443 232L360 306.5L244 191.5L140.5 316.5Z" fill="black" stroke="black"/>
<path d="M141 401L153 410.5L244.5 300L419.5 479L430.5 469L243 277.5L141 401Z" fill="#0097FE" stroke="#0097FE"/>
<path d="M341 71L326 67L325.5 67.5C268.5 150 195 127.5 193 33.5L178 30C174.5 139.5 273.5 176 341 71Z" fill="#FF6821" stroke="#FF6821"/>
</svg>
